<?xml version="1.0" encoding="utf-8"?>
<!-- Generator: Adobe Illustrator 19.0.0, SVG Export Plug-In . SVG Version: 6.00 Build 0)  -->
<svg version="1.1" id="Capa_1" xmlns="http://www.w3.org/2000/svg" xmlns:xlink="http://www.w3.org/1999/xlink" x="0px" y="0px"
	 viewBox="-742 323.8 434.2 434.2" style="enable-background:new -742 323.8 434.2 434.2;" xml:space="preserve">
<style type="text/css">
	.st0{fill:#FFFFFF;}
</style>
<g>
	<path class="st0" d="M-409.7,554V358.8h-291.4V723h134c9.6,0,17.5,7.9,17.5,17.5c0,9.6-7.9,17.5-17.5,17.5h-151.5
		c-9.6,0-17.5-7.9-17.5-17.5V341.3c0-9.6,7.9-17.5,17.5-17.5h326.4c9.6,0,17.5,7.9,17.5,17.5V554c0,9.6-7.9,17.5-17.5,17.5
		S-409.7,563.6-409.7,554z M-319.6,596.6c-7.3-6.4-18.4-5.8-24.8,1.5l-95.9,106.6l-48.1-46.3c-7-6.7-18.1-6.4-24.8,0.6
		c-6.7,7-6.4,18.1,0.6,24.8l61.2,58.9c3.2,3.2,7.6,5,12.2,5c0.3,0,0.3,0,0.6,0c4.7-0.3,9.3-2.3,12.2-5.8l107.8-120.1
		C-311.8,614.1-312.4,603-319.6,596.6z M-473.8,425.8h-157.3c-9.6,0-17.5,7.9-17.5,17.5s7.9,17.5,17.5,17.5h157.3
		c9.6,0,17.5-7.9,17.5-17.5S-464.2,425.8-473.8,425.8z M-456.3,539.5c0-9.6-7.9-17.5-17.5-17.5h-157.4c-9.6,0-17.5,7.9-17.5,17.5
		c0,9.6,7.9,17.5,17.5,17.5h157.3C-464.2,556.9-456.3,549.1-456.3,539.5z M-631.1,615.2c-9.6,0-17.5,7.9-17.5,17.5
		s7.9,17.5,17.5,17.5h46.6c9.6,0,17.5-7.9,17.5-17.5s-7.9-17.5-17.5-17.5H-631.1z"/>
</g>
</svg>
