<?xml version="1.0" encoding="utf-8"?>
<!-- Generator: Adobe Illustrator 19.0.0, SVG Export Plug-In . SVG Version: 6.00 Build 0)  -->
<svg version="1.1" id="Layer_1" xmlns="http://www.w3.org/2000/svg" xmlns:xlink="http://www.w3.org/1999/xlink" x="0px" y="0px"
	 viewBox="-759 340 401 401" style="enable-background:new -759 340 401 401;" xml:space="preserve">

<path class="st0" d="M-491.5,548.2c-2.2,0-3.9,1.8-3.9,3.9v35c0,6.5-5.3,11.8-11.8,11.8H-618c-6.5,0-11.8-5.3-11.8-11.8V484.4
	c0-6.5,5.3-11.8,11.8-11.8h35c2.2,0,3.9-1.8,3.9-3.9c0-2.2-1.8-3.9-3.9-3.9h-35c-10.9,0-19.7,8.8-19.7,19.7v102.8
	c0,10.9,8.8,19.7,19.7,19.7h110.7c10.9,0,19.7-8.8,19.7-19.7v-35C-487.6,550-489.3,548.2-491.5,548.2z"/>
<path class="st0" d="M-489.1,454.5c-6.9-6.9-18.2-6.9-25.1,0l-70.4,70.4c-0.5,0.5-0.8,1.1-1,1.7l-9.3,33.4c-0.4,1.4,0,2.8,1,3.8
	c1,1,2.5,1.4,3.8,1l33.4-9.3c0.7-0.2,1.3-0.5,1.7-1l70.4-70.4c6.9-6.9,6.9-18.2,0-25.1L-489.1,454.5z M-576,527.4l57.6-57.6
	l18.6,18.6l-57.6,57.6L-576,527.4z M-579.7,534.9l14.8,14.8l-20.5,5.7L-579.7,534.9z M-490.1,478.7l-4.2,4.2l-18.6-18.6l4.2-4.2
	c3.9-3.9,10.1-3.9,13.9,0l4.6,4.6C-486.2,468.6-486.2,474.8-490.1,478.7z"/>
</svg>
