<?xml version="1.0" encoding="utf-8"?>
<!-- Generator: Adobe Illustrator 19.0.0, SVG Export Plug-In . SVG Version: 6.00 Build 0)  -->
<svg version="1.1" id="Capa_1" xmlns="http://www.w3.org/2000/svg" xmlns:xlink="http://www.w3.org/1999/xlink" x="0px" y="0px"
	 viewBox="-717 299.7 483.3 483.3" style="enable-background:new -717 299.7 483.3 483.3;" xml:space="preserve">
<style type="text/css">
	.st0{fill:#FFFFFF;}
</style>
<g>
	<g>
		<path class="st0" d="M-292.7,357.5h-365.2c-32.6,0-59.1,26.5-59.1,59.1v249.6c0,32.6,26.5,59.1,59.1,59.1h365.1
			c32.6,0,59.1-26.5,59.1-59.1V416.7C-233.6,384.1-260.1,357.5-292.7,357.5z M-260.6,666.2c0,17.7-14.4,32.1-32.1,32.1h-365.2
			c-17.7,0-32.1-14.4-32.1-32.1V416.7c0-17.7,14.4-32.1,32.1-32.1h365.1c17.7,0,32.1,14.4,32.1,32.1L-260.6,666.2L-260.6,666.2z"/>
		<path class="st0" d="M-412.2,538.3l118.2-106c5.5-5,6-13.5,1-19.1c-5-5.5-13.5-6-19.1-1l-163,146.3l-31.8-28.4
			c-0.1-0.1-0.2-0.2-0.2-0.3c-0.7-0.7-1.4-1.3-2.2-1.9l-129.4-115.8c-5.6-5-14.1-4.5-19.1,1.1c-5,5.6-4.5,14.1,1.1,19.1l119.6,106.9
			l-119.1,111.5c-5.4,5.1-5.7,13.6-0.6,19.1c2.7,2.8,6.3,4.3,9.9,4.3c3.3,0,6.6-1.2,9.2-3.6l120.9-113.1l32.8,29.3
			c2.6,2.3,5.8,3.4,9,3.4s6.5-1.2,9-3.5l33.7-30.2l120.2,114.2c2.6,2.5,6,3.7,9.3,3.7c3.6,0,7.1-1.4,9.8-4.2
			c5.1-5.4,4.9-14-0.5-19.1L-412.2,538.3z"/>
	</g>
</g>
</svg>
