<?xml version="1.0" encoding="utf-8"?>
<!-- Generator: Adobe Illustrator 19.0.0, SVG Export Plug-In . SVG Version: 6.00 Build 0)  -->
<svg version="1.1" id="Capa_1" xmlns="http://www.w3.org/2000/svg" xmlns:xlink="http://www.w3.org/1999/xlink" x="0px" y="0px"
	 viewBox="-223 25 512 512" style="enable-background:new -223 25 512 512;" xml:space="preserve">

<g>
	<g>
		<g>
			<path class="st0" d="M285.7,271c-4.6-6.3-113.6-153.2-252.7-153.2S-215.2,264.8-219.8,271c-4.3,5.9-4.3,14,0,19.9
				c4.6,6.3,113.6,153.2,252.7,153.2s248.2-147,252.7-153.2C290.1,285,290.1,277,285.7,271z M33,410.4
				c-102.5,0-191.3-97.5-217.6-129.4C-158.4,249.1-69.8,151.6,33,151.6c102.5,0,191.3,97.5,217.6,129.4
				C224.4,312.9,135.7,410.4,33,410.4z"/>
		</g>
	</g>
</g>
<g>
	<g>
		<g>
			<path class="st0" d="M33,179.7c-55.8,0-101.3,45.4-101.3,101.3S-22.8,382.3,33,382.3S134.3,336.8,134.3,281S88.8,179.7,33,179.7z
				 M33,348.5c-37.2,0-67.5-30.3-67.5-67.5s30.3-67.5,67.5-67.5s67.5,30.3,67.5,67.5S70.2,348.5,33,348.5z"/>
		</g>
	</g>
</g>
</svg>
