<?xml version="1.0" encoding="utf-8"?>
<!-- Generator: Adobe Illustrator 19.0.0, SVG Export Plug-In . SVG Version: 6.00 Build 0)  -->
<svg version="1.1" id="Capa_1" xmlns="http://www.w3.org/2000/svg" xmlns:xlink="http://www.w3.org/1999/xlink" x="0px" y="0px"
	 viewBox="-677 259.6 563.4 563.4" style="enable-background:new -677 259.6 563.4 563.4;" xml:space="preserve">
<style type="text/css">
	.st0{fill:#FFFFFF;}
</style>
<path class="st0" d="M-396.2,574.1c83.3,0,150.8-67.5,150.8-150.8S-312.9,273-396.2,273S-547,340.5-547,423.3
	S-479.5,574.1-396.2,574.1z M-396.2,312.3c61.1,0,111,50,111,111s-50,111-111,111s-111-50-111-111S-457.3,312.3-396.2,312.3z"/>
<path class="st0" d="M-657.1,809.6h523.6c11.1,0,19.9-8.8,19.9-19.9c0-104.1-84.7-189.2-189.2-189.2h-185
	c-104.1,0-189.2,84.7-189.2,189.2C-677,800.8-668.2,809.6-657.1,809.6z M-487.8,640.3h185c75.9,0,138.3,56.4,148,129.5h-481.1
	C-626.1,697.2-563.7,640.3-487.8,640.3z"/>
</svg>
