<?xml version="1.0" encoding="utf-8"?>
<!-- Generator: Adobe Illustrator 19.0.0, SVG Export Plug-In . SVG Version: 6.00 Build 0)  -->
<svg version="1.1" id="Capa_1" xmlns="http://www.w3.org/2000/svg" xmlns:xlink="http://www.w3.org/1999/xlink" x="0px" y="0px"
	 viewBox="-703 285 512 512" style="enable-background:new -703 285 512 512;" xml:space="preserve">
<style type="text/css">
	.st0{fill:#FFFFFF;}
</style>
<g>
	<g>
		<path class="st0" d="M-236,407h-135v-77c0-24.8-20.2-45-45-45h-242c-24.8,0-45,20.2-45,45v422c0,24.8,20.2,45,45,45h242
			c24.8,0,45-20.2,45-45v-83.8l51.2-51.2h83.8c24.8,0,45-20.2,45-45V452C-191,427.2-211.2,407-236,407z M-673,330
			c0-8.3,6.7-15,15-15h242c8.3,0,15,6.7,15,15v15h-272V330z M-401,752c0,8.3-6.7,15-15,15h-242c-8.3,0-15-6.7-15-15v-45h272V752z
			 M-401,677h-272V375h272v32h-15c-24.8,0-45,20.2-45,45v120c0,24.8,20.2,45,45,45h15C-401,623.9-401,670.5-401,677z M-221,572
			c0,8.3-6.7,15-15,15h-90c-4,0-7.8,1.6-10.6,4.4l-34.4,34.4V602v0c0-8.3-6.7-15-15-15h-30c-8.3,0-15-6.7-15-15V452
			c0-8.3,6.7-15,15-15h180c8.3,0,15,6.7,15,15V572z"/>
	</g>
</g>
<g>
	<g>
		<path class="st0" d="M-266,467h-120c-8.3,0-15,6.7-15,15s6.7,15,15,15h120c8.3,0,15-6.7,15-15S-257.7,467-266,467z"/>
	</g>
</g>
<g>
	<g>
		<path class="st0" d="M-326,527h-60c-8.3,0-15,6.7-15,15s6.7,15,15,15h60c8.3,0,15-6.7,15-15S-317.7,527-326,527z"/>
	</g>
</g>
</svg>
