<?xml version="1.0" encoding="utf-8"?>
<!-- Generator: Adobe Illustrator 19.0.0, SVG Export Plug-In . SVG Version: 6.00 Build 0)  -->
<svg version="1.1" id="Capa_1" xmlns="http://www.w3.org/2000/svg" xmlns:xlink="http://www.w3.org/1999/xlink" x="0px" y="0px"
	 viewBox="-173 -26.8 612.8 612.8" style="enable-background:new -173 -26.8 612.8 612.8;" xml:space="preserve">

<g>
	<g>
		<path class="st0" d="M427.5,194.9c-14.4-50.5-40.1-94.3-77.9-132.1c-29.1-29.1-62.6-51.4-100-66.6C212-19,173.6-26.8,133.8-26.8
			v37.5c69.9,0,138.9,27,190,78.3c32.9,33,55.4,71.6,67.9,115.4c12.6,43.9,14.4,88,4.7,132.5c-9.7,44.5-29.4,84-59.5,118.4
			L284.6,404v127.5l130.1,2l-52.2-52.2c34.8-39.5,57.9-84.6,69.2-135.2C443.2,295.6,441.8,245.1,427.5,194.9z"/>
		<path class="st0" d="M-125.1,355.2c-12.5-43.8-14.1-88-4.4-132.5c9.7-44.5,29.8-84.3,59.9-118.8l52.2,51.9V27.7l-130.1-1.3
			l51.9,51.5c-34.8,39.5-57.9,84.6-69.2,135.1c-11.4,50.5-10.1,101,4.3,151.5c14.3,50.2,40.1,94,77.9,131.8
			c29.1,29.1,62.6,51.4,100,66.6C54.9,578.2,93.6,586,133.8,586v-36.8c-70.9,0-138.9-27.3-190.3-78.9
			C-89.5,437.2-112.6,399-125.1,355.2z"/>
	</g>
</g>
</svg>
